<svg xmlns="http://www.w3.org/2000/svg" style="display:none">
  <svg id="search" viewBox="0 0 24 24" fill="none" stroke="currentColor" stroke-width="2" stroke-linecap="round" stroke-linejoin="round" class="icon icon-tabler icons-tabler-outline icon-tabler-search"> <path stroke="none" d="M0 0h24v24H0z" fill="none"/> <path d="M3 10a7 7 0 1 0 14 0a7 7 0 1 0 -14 0" /><path d="M21 21l-6 -6" /> </svg>

  <svg id="user" viewBox="0 0 24 24" fill="none" stroke="currentColor" stroke-width="2" stroke-linecap="round" stroke-linejoin="round" class="icon icon-tabler icons-tabler-outline icon-tabler-user-circle"> <path stroke="none" d="M0 0h24v24H0z" fill="none"/> <path d="M3 12a9 9 0 1 0 18 0a9 9 0 1 0 -18 0" /><path d="M9 10a3 3 0 1 0 6 0a3 3 0 1 0 -6 0" /><path d="M6.168 18.849a4 4 0 0 1 3.832 -2.849h4a4 4 0 0 1 3.834 2.855" /> </svg>

  <svg id="user-2" fill="none" stroke="currentColor" stroke-width="2" stroke-linecap="round" stroke-linejoin="round" class="icon icon-tabler icons-tabler-outline icon-tabler-user"><path stroke="none" d="M0 0h24v24H0z" fill="none" /><path d="M8 7a4 4 0 1 0 8 0a4 4 0 0 0 -8 0" /><path d="M6 21v-2a4 4 0 0 1 4 -4h4a4 4 0 0 1 4 4v2" /></svg>

  <svg id="user-2-fill" viewBox="0 0 24 24" fill="currentColor" class="icon icon-tabler icons-tabler-filled icon-tabler-user"><path stroke="none" d="M0 0h24v24H0z" fill="none" /><path d="M12 2a5 5 0 1 1 -5 5l.005 -.217a5 5 0 0 1 4.995 -4.783z" /><path d="M14 14a5 5 0 0 1 5 5v1a2 2 0 0 1 -2 2h-10a2 2 0 0 1 -2 -2v-1a5 5 0 0 1 5 -5h4z" /></svg>

  <svg id="user-plus" viewBox="0 0 24 24" fill="none" stroke="currentColor" stroke-width="2" stroke-linecap="round" stroke-linejoin="round" class="icon icon-tabler icons-tabler-outline icon-tabler-user-plus"><path stroke="none" d="M0 0h24v24H0z" fill="none" /><path d="M8 7a4 4 0 1 0 8 0a4 4 0 0 0 -8 0" /><path d="M16 19h6" /><path d="M19 16v6" /><path d="M6 21v-2a4 4 0 0 1 4 -4h4" /></svg>

  <svg id="home" viewBox="0 0 24 24" fill="none" stroke="currentColor" stroke-width="2" stroke-linecap="round" stroke-linejoin="round" class="icon icon-tabler icons-tabler-outline icon-tabler-home"> <path stroke="none" d="M0 0h24v24H0z" fill="none"/> <path d="M5 12l-2 0l9 -9l9 9l-2 0" /><path d="M5 12v7a2 2 0 0 0 2 2h10a2 2 0 0 0 2 -2v-7" /><path d="M9 21v-6a2 2 0 0 1 2 -2h2a2 2 0 0 1 2 2v6" /> </svg>

  <svg id="home-fill" viewBox="0 0 24 24" fill="currentColor" class="icon icon-tabler icons-tabler-filled icon-tabler-home"><path stroke="none" d="M0 0h24v24H0z" fill="none" /><path d="M12.707 2.293l9 9c.63 .63 .184 1.707 -.707 1.707h-1v6a3 3 0 0 1 -3 3h-1v-7a3 3 0 0 0 -2.824 -2.995l-.176 -.005h-2a3 3 0 0 0 -3 3v7h-1a3 3 0 0 1 -3 -3v-6h-1c-.89 0 -1.337 -1.077 -.707 -1.707l9 -9a1 1 0 0 1 1.414 0m.293 11.707a1 1 0 0 1 1 1v7h-4v-7a1 1 0 0 1 .883 -.993l.117 -.007z" /></svg>

  <svg id="settings" viewBox="0 0 24 24" fill="none" stroke="currentColor" stroke-width="2" stroke-linecap="round" stroke-linejoin="round" class="icon icon-tabler icons-tabler-outline icon-tabler-settings"><path stroke="none" d="M0 0h24v24H0z" fill="none"/><path d="M10.325 4.317c.426 -1.756 2.924 -1.756 3.35 0a1.724 1.724 0 0 0 2.573 1.066c1.543 -.94 3.31 .826 2.37 2.37a1.724 1.724 0 0 0 1.065 2.572c1.756 .426 1.756 2.924 0 3.35a1.724 1.724 0 0 0 -1.066 2.573c.94 1.543 -.826 3.31 -2.37 2.37a1.724 1.724 0 0 0 -2.572 1.065c-.426 1.756 -2.924 1.756 -3.35 0a1.724 1.724 0 0 0 -2.573 -1.066c-1.543 .94 -3.31 -.826 -2.37 -2.37a1.724 1.724 0 0 0 -1.065 -2.572c-1.756 -.426 -1.756 -2.924 0 -3.35a1.724 1.724 0 0 0 1.066 -2.573c-.94 -1.543 .826 -3.31 2.37 -2.37c1 .608 2.296 .07 2.572 -1.065" /><path d="M9 12a3 3 0 1 0 6 0a3 3 0 0 0 -6 0" /> </svg>

  <svg id="heart" viewBox="0 0 24 24" fill="none" stroke="currentColor" stroke-width="2" stroke-linecap="round" stroke-linejoin="round" class="icon icon-tabler icons-tabler-outline icon-tabler-heart"><path stroke="none" d="M0 0h24v24H0z" fill="none"/><path d="M19.5 12.572l-7.5 7.428l-7.5 -7.428a5 5 0 1 1 7.5 -6.566a5 5 0 1 1 7.5 6.572" /> </svg>

  <svg id="heart-fill" viewBox="0 0 24 24" fill="currentColor" class="icon icon-tabler icons-tabler-filled icon-tabler-heart"><path stroke="none" d="M0 0h24v24H0z" fill="none"/><path d="M6.979 3.074a6 6 0 0 1 4.988 1.425l.037 .033l.034 -.03a6 6 0 0 1 4.733 -1.44l.246 .036a6 6 0 0 1 3.364 10.008l-.18 .185l-.048 .041l-7.45 7.379a1 1 0 0 1 -1.313 .082l-.094 -.082l-7.493 -7.422a6 6 0 0 1 3.176 -10.215z" /></svg>

  <svg id="message-circle" viewBox="0 0 24 24" fill="none" stroke="currentColor" stroke-width="2" stroke-linecap="round" stroke-linejoin="round" class="icon icon-tabler icons-tabler-outline icon-tabler-message-circle"><path stroke="none" d="M0 0h24v24H0z" fill="none"/><path d="M3 20l1.3 -3.9c-2.324 -3.437 -1.426 -7.872 2.1 -10.374c3.526 -2.501 8.59 -2.296 11.845 .48c3.255 2.777 3.695 7.266 1.029 10.501c-2.666 3.235 -7.615 4.215 -11.574 2.293l-4.7 1" /> </svg>

  <svg id="message-circle-fill" viewBox="0 0 24 24" fill="currentColor" class="icon icon-tabler icons-tabler-filled icon-tabler-message-circle"><path stroke="none" d="M0 0h24v24H0z" fill="none" /><path d="M5.821 4.91c3.899 -2.765 9.468 -2.539 13.073 .535c3.667 3.129 4.168 8.238 1.152 11.898c-2.841 3.447 -7.965 4.583 -12.231 2.805l-.233 -.101l-4.374 .931l-.04 .006l-.035 .007h-.018l-.022 .005h-.038l-.033 .004l-.021 -.001l-.023 .001l-.033 -.003h-.035l-.022 -.004l-.022 -.002l-.035 -.007l-.034 -.005l-.016 -.004l-.024 -.005l-.049 -.016l-.024 -.005l-.011 -.005l-.022 -.007l-.045 -.02l-.03 -.012l-.011 -.006l-.014 -.006l-.031 -.018l-.045 -.024l-.016 -.011l-.037 -.026l-.04 -.027l-.002 -.004l-.013 -.009l-.043 -.04l-.025 -.02l-.006 -.007l-.056 -.062l-.013 -.014l-.011 -.014l-.039 -.056l-.014 -.019l-.005 -.01l-.042 -.073l-.007 -.012l-.004 -.008l-.007 -.012l-.014 -.038l-.02 -.042l-.004 -.016l-.004 -.01l-.017 -.061l-.007 -.018l-.002 -.015l-.005 -.019l-.005 -.033l-.008 -.042l-.002 -.031l-.003 -.01v-.016l-.004 -.054l.001 -.036l.001 -.023l.002 -.053l.004 -.025v-.019l.008 -.035l.005 -.034l.005 -.02l.004 -.02l.018 -.06l.003 -.013l1.15 -3.45l-.022 -.037c-2.21 -3.747 -1.209 -8.391 2.413 -11.119z" /></svg>

  <svg id="reply-fill" viewBox="0 0 24 24" fill="currentColor" class="icon icon-tabler icons-tabler-filled icon-tabler-messages"><path stroke="none" d="M0 0h24v24H0z" fill="none" /><path d="M20.901 14.995l-.044 -.006a.4 .4 0 0 1 -.102 -.02l-.045 -.012l-.048 -.017l-.045 -.016l-.043 -.02l-.045 -.022l-.04 -.024l-.044 -.026l-.043 -.032l-.036 -.027a1 1 0 0 1 -.073 -.066l-2.707 -2.707h-6.586a2 2 0 0 1 -2 -2v-6a2 2 0 0 1 2 -2h9a2 2 0 0 1 2 2v10a1 1 0 0 1 -.076 .383l-.02 .043l-.022 .045l-.024 .04l-.026 .044l-.032 .043l-.027 .036a1 1 0 0 1 -.578 .347l-.052 .008l-.044 .006a1 1 0 0 1 -.198 0" /><path d="M7 8.999v1.001a4 4 0 0 0 4 4h4v3a2 2 0 0 1 -2 2h-6.586l-2.707 2.707c-.63 .63 -1.707 .184 -1.707 -.707v-10a2 2 0 0 1 2 -2z" /></svg>

  <svg id="share-2" viewBox="0 0 24 24" fill="none" stroke="currentColor" stroke-width="2" stroke-linecap="round" stroke-linejoin="round" class="icon icon-tabler icons-tabler-outline icon-tabler-share-2"><path stroke="none" d="M0 0h24v24H0z" fill="none"/><path d="M8 9h-1a2 2 0 0 0 -2 2v8a2 2 0 0 0 2 2h10a2 2 0 0 0 2 -2v-8a2 2 0 0 0 -2 -2h-1" /><path d="M12 14v-11" /><path d="M9 6l3 -3l3 3" /></svg>

  <svg id="dots" viewBox="0 0 24 24" fill="none" stroke="currentColor" stroke-width="2" stroke-linecap="round" stroke-linejoin="round" class="icon icon-tabler icons-tabler-outline icon-tabler-dots"><path stroke="none" d="M0 0h24v24H0z" fill="none"/><path d="M4 12a1 1 0 1 0 2 0a1 1 0 1 0 -2 0" /><path d="M11 12a1 1 0 1 0 2 0a1 1 0 1 0 -2 0" /><path d="M18 12a1 1 0 1 0 2 0a1 1 0 1 0 -2 0" /></svg>

  <svg id="clock-hour-11" viewBox="0 0 24 24" fill="none" stroke="currentColor" stroke-width="2" stroke-linecap="round" stroke-linejoin="round" class="icon icon-tabler icons-tabler-outline icon-tabler-clock-hour-11"><path stroke="none" d="M0 0h24v24H0z" fill="none"/><path d="M3 12a9 9 0 1 0 18 0a9 9 0 1 0 -18 0" /><path d="M12 12l-2 -3" /><path d="M12 7v5" /></svg>

  <svg id="arrow-narrow-left" viewBox="0 0 24 24" fill="none" stroke="currentColor" stroke-width="2" stroke-linecap="round" stroke-linejoin="round" class="icon icon-tabler icons-tabler-outline icon-tabler-arrow-narrow-left"><path stroke="none" d="M0 0h24v24H0z" fill="none"/><path d="M5 12l14 0" /><path d="M5 12l4 4" /><path d="M5 12l4 -4" /></svg>

  <svg id="arrow-big-up-line" viewBox="0 0 24 24" fill="none" stroke="currentColor" stroke-width="2" stroke-linecap="round" stroke-linejoin="round" class="icon icon-tabler icons-tabler-outline icon-tabler-arrow-big-up-line"><path stroke="none" d="M0 0h24v24H0z" fill="none"/><path d="M9 12h-3.586a1 1 0 0 1 -.707 -1.707l6.586 -6.586a1 1 0 0 1 1.414 0l6.586 6.586a1 1 0 0 1 -.707 1.707h-3.586v6h-6v-6" /><path d="M9 21h6" /></svg>

  <svg id="message-language" viewBox="0 0 24 24" fill="none" stroke="currentColor" stroke-width="2" stroke-linecap="round" stroke-linejoin="round" class="icon icon-tabler icons-tabler-outline icon-tabler-message-language"><path stroke="none" d="M0 0h24v24H0z" fill="none"/><path d="M4 21v-13a3 3 0 0 1 3 -3h10a3 3 0 0 1 3 3v6a3 3 0 0 1 -3 3h-9l-4 4" /><path d="M10 14v-4a2 2 0 1 1 4 0v4" /><path d="M14 12h-4" /></svg>

  <svg id="cake" viewBox="0 0 24 24" fill="none" stroke="currentColor" stroke-width="2" stroke-linecap="round" stroke-linejoin="round" class="icon icon-tabler icons-tabler-outline icon-tabler-cake"><path stroke="none" d="M0 0h24v24H0z" fill="none"/><path d="M3 20h18v-8a3 3 0 0 0 -3 -3h-12a3 3 0 0 0 -3 3v8" /><path d="M3 14.803c.312 .135 .654 .204 1 .197a2.4 2.4 0 0 0 2 -1a2.4 2.4 0 0 1 2 -1a2.4 2.4 0 0 1 2 1a2.4 2.4 0 0 0 2 1a2.4 2.4 0 0 0 2 -1a2.4 2.4 0 0 1 2 -1a2.4 2.4 0 0 1 2 1a2.4 2.4 0 0 0 2 1c.35 .007 .692 -.062 1 -.197" /><path d="M12 4l1.465 1.638a2 2 0 1 1 -3.015 .099l1.55 -1.737" /></svg>

  <svg id="calendar-event" viewBox="0 0 24 24" fill="none" stroke="currentColor" stroke-width="2" stroke-linecap="round" stroke-linejoin="round" class="icon icon-tabler icons-tabler-outline icon-tabler-calendar-event"><path stroke="none" d="M0 0h24v24H0z" fill="none"/><path d="M4 7a2 2 0 0 1 2 -2h12a2 2 0 0 1 2 2v12a2 2 0 0 1 -2 2h-12a2 2 0 0 1 -2 -2l0 -12" /><path d="M16 3l0 4" /><path d="M8 3l0 4" /><path d="M4 11l16 0" /><path d="M8 15h2v2h-2l0 -2" /></svg>

  <svg id="chevron-left" viewBox="0 0 24 24" fill="none" stroke="currentColor" stroke-width="2" stroke-linecap="round" stroke-linejoin="round" class="icon icon-tabler icons-tabler-outline icon-tabler-chevron-left"><path stroke="none" d="M0 0h24v24H0z" fill="none"/><path d="M15 6l-6 6l6 6" /></svg>

  <svg id="chevron-right" viewBox="0 0 24 24" fill="none" stroke="currentColor" stroke-width="2" stroke-linecap="round" stroke-linejoin="round" class="icon icon-tabler icons-tabler-outline icon-tabler-chevron-right"><path stroke="none" d="M0 0h24v24H0z" fill="none"/><path d="M9 6l6 6l-6 6" /></svg>

  <svg id="x" viewBox="0 0 24 24" fill="currentColor" class="icon icon-tabler icons-tabler-filled icon-tabler-x"><path stroke="none" d="M0 0h24v24H0z" fill="none"/><path d="M6.707 5.293l5.293 5.292l5.293 -5.292a1 1 0 0 1 1.414 1.414l-5.292 5.293l5.292 5.293a1 1 0 0 1 -1.414 1.414l-5.293 -5.292l-5.293 5.292a1 1 0 1 1 -1.414 -1.414l5.292 -5.293l-5.292 -5.293a1 1 0 0 1 1.414 -1.414" /></svg>

  <svg id="dots-vertical" viewBox="0 0 24 24" fill="none" stroke="currentColor" stroke-width="2" stroke-linecap="round" stroke-linejoin="round" class="icon icon-tabler icons-tabler-outline icon-tabler-dots-vertical"><path stroke="none" d="M0 0h24v24H0z" fill="none"/><path d="M11 12a1 1 0 1 0 2 0a1 1 0 1 0 -2 0" /><path d="M11 19a1 1 0 1 0 2 0a1 1 0 1 0 -2 0" /><path d="M11 5a1 1 0 1 0 2 0a1 1 0 1 0 -2 0" /></svg>

  <svg id="map-pin" viewBox="0 0 24 24" fill="none" stroke="currentColor" stroke-width="2" stroke-linecap="round" stroke-linejoin="round" class="icon icon-tabler icons-tabler-outline icon-tabler-map-pin"><path stroke="none" d="M0 0h24v24H0z" fill="none"/><path d="M9 11a3 3 0 1 0 6 0a3 3 0 0 0 -6 0" /><path d="M17.657 16.657l-4.243 4.243a2 2 0 0 1 -2.827 0l-4.244 -4.243a8 8 0 1 1 11.314 0" /></svg>

  <svg id="world" viewBox="0 0 24 24" fill="none" stroke="currentColor" stroke-width="2" stroke-linecap="round" stroke-linejoin="round" class="icon icon-tabler icons-tabler-outline icon-tabler-world"><path stroke="none" d="M0 0h24v24H0z" fill="none"/><path d="M3 12a9 9 0 1 0 18 0a9 9 0 0 0 -18 0" /><path d="M3.6 9h16.8" /><path d="M3.6 15h16.8" /><path d="M11.5 3a17 17 0 0 0 0 18" /><path d="M12.5 3a17 17 0 0 1 0 18" /></svg>

  <svg id="arrow-big-left" viewBox="0 0 24 24" fill="none" stroke="currentColor" stroke-width="2" stroke-linecap="round" stroke-linejoin="round" class="icon icon-tabler icons-tabler-outline icon-tabler-arrow-big-left"><path stroke="none" d="M0 0h24v24H0z" fill="none"/><path d="M20 15h-8v3.586a1 1 0 0 1 -1.707 .707l-6.586 -6.586a1 1 0 0 1 0 -1.414l6.586 -6.586a1 1 0 0 1 1.707 .707v3.586h8a1 1 0 0 1 1 1v4a1 1 0 0 1 -1 1" /></svg>

  <svg id="bell" viewBox="0 0 24 24" fill="none" stroke="currentColor" stroke-width="2" stroke-linecap="round" stroke-linejoin="round" class="icon icon-tabler icons-tabler-outline icon-tabler-bell"><path stroke="none" d="M0 0h24v24H0z" fill="none"/><path d="M10 5a2 2 0 1 1 4 0a7 7 0 0 1 4 6v3a4 4 0 0 0 2 3h-16a4 4 0 0 0 2 -3v-3a7 7 0 0 1 4 -6" /><path d="M9 17v1a3 3 0 0 0 6 0v-1" /></svg>

  <svg id="bell-fill" viewBox="0 0 24 24" fill="currentColor" class="icon icon-tabler icons-tabler-filled icon-tabler-bell"><path stroke="none" d="M0 0h24v24H0z" fill="none" /><path d="M14.235 19c.865 0 1.322 1.024 .745 1.668a3.992 3.992 0 0 1 -2.98 1.332a3.992 3.992 0 0 1 -2.98 -1.332c-.552 -.616 -.158 -1.579 .634 -1.661l.11 -.006h4.471z" /><path d="M12 2c1.358 0 2.506 .903 2.875 2.141l.046 .171l.008 .043a8.013 8.013 0 0 1 4.024 6.069l.028 .287l.019 .289v2.931l.021 .136a3 3 0 0 0 1.143 1.847l.167 .117l.162 .099c.86 .487 .56 1.766 -.377 1.864l-.116 .006h-16c-1.028 0 -1.387 -1.364 -.493 -1.87a3 3 0 0 0 1.472 -2.063l.021 -.143l.001 -2.97a8 8 0 0 1 3.821 -6.454l.248 -.146l.01 -.043a3.003 3.003 0 0 1 2.562 -2.29l.182 -.017l.176 -.004z" /></svg>

  <svg id="sun" viewBox="0 0 24 24" fill="none" stroke="currentColor" stroke-width="2" stroke-linecap="round" stroke-linejoin="round" class="icon icon-tabler icons-tabler-outline icon-tabler-sun"><path stroke="none" d="M0 0h24v24H0z" fill="none"/><path d="M8 12a4 4 0 1 0 8 0a4 4 0 1 0 -8 0" /><path d="M3 12h1m8 -9v1m8 8h1m-9 8v1m-6.4 -15.4l.7 .7m12.1 -.7l-.7 .7m0 11.4l.7 .7m-12.1 -.7l-.7 .7" /></svg>

  <svg id="moon" viewBox="0 0 24 24" fill="none" stroke="currentColor" stroke-width="2" stroke-linecap="round" stroke-linejoin="round" class="icon icon-tabler icons-tabler-outline icon-tabler-moon"><path stroke="none" d="M0 0h24v24H0z" fill="none"/><path d="M12 3c.132 0 .263 0 .393 0a7.5 7.5 0 0 0 7.92 12.446a9 9 0 1 1 -8.313 -12.454l0 .008" /></svg>

  <svg id="coffee" viewBox="0 0 24 24" fill="none" stroke="currentColor" stroke-width="2" stroke-linecap="round" stroke-linejoin="round" class="icon icon-tabler icons-tabler-outline icon-tabler-coffee"><path stroke="none" d="M0 0h24v24H0z" fill="none"/><path d="M3 14c.83 .642 2.077 1.017 3.5 1c1.423 .017 2.67 -.358 3.5 -1c.83 -.642 2.077 -1.017 3.5 -1c1.423 -.017 2.67 .358 3.5 1" /><path d="M8 3a2.4 2.4 0 0 0 -1 2a2.4 2.4 0 0 0 1 2" /><path d="M12 3a2.4 2.4 0 0 0 -1 2a2.4 2.4 0 0 0 1 2" /><path d="M3 10h14v5a6 6 0 0 1 -6 6h-2a6 6 0 0 1 -6 -6v-5" /><path d="M16.746 16.726a3 3 0 1 0 .252 -5.555" /></svg>

  <svg id="compass" viewBox="0 0 24 24" fill="none" stroke="currentColor" stroke-width="2" stroke-linecap="round" stroke-linejoin="round" class="icon icon-tabler icons-tabler-outline icon-tabler-compass"><path stroke="none" d="M0 0h24v24H0z" fill="none"/><path d="M8 16l2 -6l6 -2l-2 6l-6 2" /><path d="M3 12a9 9 0 1 0 18 0a9 9 0 1 0 -18 0" /><path d="M12 3l0 2" /><path d="M12 19l0 2" /><path d="M3 12l2 0" /><path d="M19 12l2 0" /></svg>

  <svg id="compass-fill" viewBox="0 0 24 24" fill="currentColor" class="icon icon-tabler icons-tabler-filled icon-tabler-compass"><path stroke="none" d="M0 0h24v24H0z" fill="none"/><path d="M17 3.34a10 10 0 1 1 -15 8.66l.005 -.324a10 10 0 0 1 14.995 -8.336zm-5 14.66a1 1 0 1 0 0 2a1 1 0 0 0 0 -2m3.684 -10.949l-6 2a1 1 0 0 0 -.633 .633l-2.007 6.026l-.023 .086l-.017 .113l-.004 .068v.044l.009 .111l.012 .07l.04 .144l.045 .1l.054 .095l.064 .09l.069 .075l.084 .074l.098 .07l.1 .054l.078 .033l.105 .033l.109 .02l.043 .005l.068 .004h.044l.111 -.009l.07 -.012l.02 -.006l.019 -.002l.074 -.022l6 -2a1 1 0 0 0 .633 -.633l2 -6a1 1 0 0 0 -1.265 -1.265zm-1.265 2.529l-1.21 3.629l-3.629 1.21l1.21 -3.629l3.629 -1.21zm-9.419 1.42a1 1 0 1 0 0 2a1 1 0 0 0 0 -2m14 0a1 1 0 1 0 0 2a1 1 0 0 0 0 -2m-7 -7a1 1 0 1 0 0 2a1 1 0 0 0 0 -2" /></svg>

  <svg id="plus" viewBox="0 0 24 24" fill="none" stroke="currentColor" stroke-width="2" stroke-linecap="round" stroke-linejoin="round" class="icon icon-tabler icons-tabler-outline icon-tabler-plus"><path stroke="none" d="M0 0h24v24H0z" fill="none"/><path d="M12 5l0 14" /><path d="M5 12l14 0" /></svg>

  <svg id="smile" viewBox="0 0 24 24" fill="none" stroke="currentColor" stroke-width="2" stroke-linecap="round" stroke-linejoin="round" class="icon icon-tabler icons-tabler-outline icon-tabler-mood-smile"><path stroke="none" d="M0 0h24v24H0z" fill="none"/><path d="M3 12a9 9 0 1 0 18 0a9 9 0 1 0 -18 0" /><path d="M9 10l.01 0" /><path d="M15 10l.01 0" /><path d="M9.5 15a3.5 3.5 0 0 0 5 0" /></svg>

  <svg id="image" viewBox="0 0 24 24" fill="none" stroke="currentColor" stroke-width="2" stroke-linecap="round" stroke-linejoin="round" class="icon icon-tabler icons-tabler-outline icon-tabler-polaroid"><path stroke="none" d="M0 0h24v24H0z" fill="none"/><path d="M4 6a2 2 0 0 1 2 -2h12a2 2 0 0 1 2 2v12a2 2 0 0 1 -2 2h-12a2 2 0 0 1 -2 -2l0 -12" /><path d="M4 16l16 0" /><path d="M4 12l3 -3c.928 -.893 2.072 -.893 3 0l4 4" /><path d="M13 12l2 -2c.928 -.893 2.072 -.893 3 0l2 2" /><path d="M14 7l.01 0" /></svg>

  <svg id="lock" viewBox="0 0 24 24" fill="none" stroke="currentColor" stroke-width="2" stroke-linecap="round" stroke-linejoin="round" class="icon icon-tabler icons-tabler-outline icon-tabler-lock"><path stroke="none" d="M0 0h24v24H0z" fill="none"/><path d="M5 13a2 2 0 0 1 2 -2h10a2 2 0 0 1 2 2v6a2 2 0 0 1 -2 2h-10a2 2 0 0 1 -2 -2v-6" /><path d="M11 16a1 1 0 1 0 2 0a1 1 0 0 0 -2 0" /><path d="M8 11v-4a4 4 0 1 1 8 0v4" /></svg>

  <svg id="chevron-down" viewBox="0 0 24 24" fill="none" stroke="currentColor" stroke-width="2" stroke-linecap="round" stroke-linejoin="round" class="icon icon-tabler icons-tabler-outline icon-tabler-chevron-down"><path stroke="none" d="M0 0h24v24H0z" fill="none"/><path d="M6 9l6 6l6 -6" /></svg>

  <svg id="speakerphone" viewBox="0 0 24 24" fill="none" stroke="currentColor" stroke-width="2" stroke-linecap="round" stroke-linejoin="round" class="icon icon-tabler icons-tabler-outline icon-tabler-speakerphone"><path stroke="none" d="M0 0h24v24H0z" fill="none" /><path d="M18 8a3 3 0 0 1 0 6" /><path d="M10 8v11a1 1 0 0 1 -1 1h-1a1 1 0 0 1 -1 -1v-5" /><path d="M12 8l4.524 -3.77a.9 .9 0 0 1 1.476 .692v12.156a.9 .9 0 0 1 -1.476 .692l-4.524 -3.77h-8a1 1 0 0 1 -1 -1v-4a1 1 0 0 1 1 -1h8" /></svg>

  <svg id="language" viewBox="0 0 24 24" fill="none" stroke="currentColor" stroke-width="2" stroke-linecap="round" stroke-linejoin="round" class="icon icon-tabler icons-tabler-outline icon-tabler-language"><path stroke="none" d="M0 0h24v24H0z" fill="none" /><path d="M9 6.371c0 4.418 -2.239 6.629 -5 6.629" /><path d="M4 6.371h7" /><path d="M5 9c0 2.144 2.252 3.908 6 4" /><path d="M12 20l4 -9l4 9" /><path d="M19.1 18h-6.2" /><path d="M6.694 3l.793 .582" /></svg>

  <svg id="logout" viewBox="0 0 24 24" fill="none" stroke="currentColor" stroke-width="2" stroke-linecap="round" stroke-linejoin="round" class="icon icon-tabler icons-tabler-outline icon-tabler-logout"><path stroke="none" d="M0 0h24v24H0z" fill="none" /><path d="M14 8v-2a2 2 0 0 0 -2 -2h-7a2 2 0 0 0 -2 2v12a2 2 0 0 0 2 2h7a2 2 0 0 0 2 -2v-2" /><path d="M9 12h12l-3 -3" /><path d="M18 15l3 -3" /></svg>
</svg>
